<?xml version="1.0" encoding="UTF-8" standalone="no"?>
<svg
   xmlns:sketch="http://www.bohemiancoding.com/sketch/ns"
   xmlns:dc="http://purl.org/dc/elements/1.1/"
   xmlns:cc="http://creativecommons.org/ns#"
   xmlns:rdf="http://www.w3.org/1999/02/22-rdf-syntax-ns#"
   xmlns:svg="http://www.w3.org/2000/svg"
   xmlns="http://www.w3.org/2000/svg"
   xmlns:sodipodi="http://sodipodi.sourceforge.net/DTD/sodipodi-0.dtd"
   xmlns:inkscape="http://www.inkscape.org/namespaces/inkscape"
   version="1.1"
   x="0px"
   y="0px"
   viewBox="0 0 100 125"
   enable-background="new 0 0 100 100"
   xml:space="preserve"
   id="svg2"
   inkscape:version="0.91 r13725"
   sodipodi:docname="course.svg"
   inkscape:export-filename="F:\CODE\Site internet\WEB\komi\images\logo\course.png"
   inkscape:export-xdpi="90"
   inkscape:export-ydpi="90"><metadata
     id="metadata32"><rdf:RDF><cc:Work
         rdf:about=""><dc:format>image/svg+xml</dc:format><dc:type
           rdf:resource="http://purl.org/dc/dcmitype/StillImage" /><dc:title></dc:title></cc:Work></rdf:RDF></metadata><defs
     id="defs30" /><sodipodi:namedview
     pagecolor="#f8d3a3"
     bordercolor="#666666"
     borderopacity="1"
     objecttolerance="10"
     gridtolerance="10"
     guidetolerance="10"
     inkscape:pageopacity="0"
     inkscape:pageshadow="2"
     inkscape:window-width="1270"
     inkscape:window-height="772"
     id="namedview28"
     showgrid="false"
     inkscape:zoom="3.776"
     inkscape:cx="432.97032"
     inkscape:cy="46.2004"
     inkscape:window-x="2395"
     inkscape:window-y="173"
     inkscape:window-maximized="0"
     inkscape:current-layer="g3366"
     showborder="false"
     showguides="false" /><g
     id="g7262"><g
       id="g3366"
       inkscape:export-xdpi="90"
       inkscape:export-ydpi="90"><g
         id="g7125"
         transform="translate(401.90298,22.895716)"
         style="fill:#ffffff"><g
           transform="matrix(0.9184095,0,0,0.9184095,105.20179,4.6668467)"
           style="fill:#ff9955;fill-rule:evenodd;stroke:none;stroke-width:1"
           sketch:type="MSPage"
           id="g7213"><g
             style="fill:#ff9955"
             sketch:type="MSLayerGroup"
             transform="translate(-1936,-120)"
             id="g7215"><g
               style="fill:#ff9955"
               transform="matrix(-1,0,0,1,2036,120)"
               sketch:type="MSShapeGroup"
               id="g7217" /></g></g></g><g
         id="g3457"
         inkscape:export-xdpi="90"
         inkscape:export-ydpi="90"><g
           transform="matrix(0.9184095,0,0,0.9184095,396.63069,32.552468)"
           style="fill:#55d400;fill-rule:evenodd;stroke:none;stroke-width:1"
           sketch:type="MSPage"
           id="g7244"><g
             style="fill:#55d400"
             sketch:type="MSLayerGroup"
             transform="translate(-1936,-120)"
             id="g7246"><g
               style="fill:#55d400"
               transform="matrix(-1,0,0,1,2036,120)"
               sketch:type="MSShapeGroup"
               id="g7248"><path
                 inkscape:connector-curvature="0"
                 id="path7250"
                 transform="matrix(-1.0888389,0,0,1.0888389,618.51195,-116.66858)"
                 d="m 517.64648,172.24219 c -5.18369,0.12196 -9.43327,4.56353 -9.29882,9.7207 0.13583,5.24171 4.44666,9.39635 9.68164,9.33399 5.24468,-0.0624 9.57131,-4.59303 9.38281,-9.82227 -0.18988,-5.25419 -4.5251,-9.35577 -9.76563,-9.23242 z m 0.20508,5.88476 c 1.903,0.003 3.62583,1.67085 3.70899,3.5918 0.0818,1.86273 -1.6607,3.61681 -3.61914,3.64453 -1.93765,0.0263 -3.66142,-1.64326 -3.6836,-3.56836 -0.0222,-1.91263 1.70323,-3.67074 3.59375,-3.66797 z"
                 style="fill:#55d400" /></g></g></g><g
           transform="matrix(0.9184095,0,0,0.9184095,396.61933,32.618676)"
           style="fill:#ffffff;fill-rule:evenodd;stroke:none;stroke-width:1"
           sketch:type="MSPage"
           id="g8"><g
             style="fill:#ffffff"
             sketch:type="MSLayerGroup"
             transform="translate(-1936,-120)"
             id="g10"><g
               style="fill:#ffffff"
               transform="matrix(-1,0,0,1,2036,120)"
               sketch:type="MSShapeGroup"
               id="g12"><path
                 id="path14"
                 transform="matrix(-1.0888389,0,0,1.0888389,531.85456,-35.516483)"
                 d="M 412.84766 40.886719 C 410.10057 40.96849 407.34751 40.884453 404.59766 40.921875 C 402.45903 40.95098 401.16022 42.1302 401.21289 43.894531 C 401.26417 45.615898 402.494 46.722157 404.51758 46.773438 C 406.28336 46.817787 408.05535 46.849286 409.81836 46.757812 C 411.09072 46.691283 411.64757 47.158568 411.98438 48.400391 C 415.5298 61.461707 419.13477 74.508933 422.71484 87.560547 C 423.11124 89.008878 423.4236 90.479403 423.81445 91.927734 C 424.42569 94.199328 425.21938 94.794922 427.57422 94.794922 C 437.52581 94.797677 447.47753 94.795497 457.42773 94.796875 C 462.2081 94.796875 466.9886 94.809347 471.76758 94.796875 C 474.2929 94.789987 475.13524 94.131393 475.76172 91.669922 C 478.37297 81.411023 480.97903 71.149775 483.57227 60.886719 C 484.46486 57.355285 483.37456 55.951991 479.76953 55.949219 C 470.21572 55.943708 460.66318 55.94669 451.10938 55.945312 C 441.3643 55.945312 431.61812 55.928306 421.87305 55.972656 C 420.7975 55.978167 420.39433 55.529152 420.10742 54.617188 C 418.94733 50.938842 417.69248 47.291815 416.57812 43.599609 C 415.996 41.673121 414.85876 40.827122 412.84766 40.886719 z M 444.16992 64.53125 L 457.92773 64.53125 C 457.72538 67.275457 457.54063 69.776252 457.35352 72.322266 L 444.7207 72.322266 C 444.53775 69.730515 444.35981 67.224176 444.16992 64.53125 z M 463.83398 64.597656 L 476.51953 64.597656 C 475.85702 67.257319 475.22962 69.774175 474.58789 72.34375 L 463.21484 72.34375 C 463.43106 69.635579 463.63163 67.132582 463.83398 64.597656 z M 422.98047 64.638672 L 438.2793 64.638672 C 438.45255 67.272002 438.61663 69.765859 438.78711 72.34375 L 424.88281 72.34375 C 424.23277 69.711807 423.61388 67.206862 422.98047 64.638672 z M 462.85938 78.347656 L 473.16797 78.347656 C 472.1936 81.953933 471.26967 85.3806 470.35352 88.773438 L 462.10352 88.773438 C 462.35716 85.282197 462.60019 81.922056 462.85938 78.347656 z M 445.16992 78.40625 L 456.94141 78.40625 C 456.67945 81.951544 456.4269 85.348535 456.17188 88.787109 L 445.87695 88.787109 C 445.63856 85.293097 445.40832 81.893333 445.16992 78.40625 z M 426.45898 78.419922 L 439.24609 78.419922 C 439.49142 81.931952 439.72815 85.334931 439.9707 88.826172 L 429.0918 88.826172 C 428.21029 85.344633 427.35019 81.94304 426.45898 78.419922 z M 464.66602 97.708984 C 459.34372 97.690965 455.14365 101.89011 455.09375 107.27734 C 455.04801 112.39293 459.39827 116.75013 464.57227 116.76953 C 469.76567 116.78755 474.11196 112.5316 474.16602 107.37305 C 474.22146 102.06481 469.95644 97.725616 464.66602 97.708984 z M 464.56445 103.60742 C 466.49933 103.56723 468.21182 105.23398 468.21875 107.16602 C 468.22564 109.18675 466.6838 110.76922 464.66992 110.80664 C 462.66297 110.84268 461.05066 109.2812 461.03125 107.28125 C 461.01184 105.28546 462.58522 103.64762 464.56445 103.60742 z "
                 style="fill:#ffffff" /></g></g></g><g
           style="fill:#55d400"
           transform="translate(547.06724,-10.115545)"
           id="g7140"><path
             sodipodi:nodetypes="cccscsccc"
             style="fill:#55d400"
             inkscape:connector-curvature="0"
             d="m -81.087723,57.236921 0.497321,-6.501913 1.382929,1.186056 c 1.18699,-3.201181 -0.272446,-6.46864 -2.500045,-9.221666 -1.929777,-2.384957 -7.847587,-3.180791 -9.020633,-5.614838 4.150088,-0.619046 10.101751,0.637388 13.220837,4.211139 3.311678,3.794417 4.715141,9.266097 1.528689,13.394124 l 1.241007,1.064121 z"
             id="path4" /></g><g
           id="g4"
           transform="matrix(0.24806231,0,0,0.24806231,429.01313,11.723795)"
           style="fill:#ffffff"><path
             id="path6-8"
             d="m 32.107,24.469 c 0,1.879 -1.521,3.402 -3.4,3.402 -1.877,0 -3.4,-1.523 -3.4,-3.402 0,-1.875 1.523,-3.398 3.4,-3.398 1.879,-0.001 3.4,1.523 3.4,3.398 z"
             inkscape:connector-curvature="0"
             style="fill:#ffffff" /><path
             id="path8"
             d="m 32.107,36.938 c 0,1.88 -1.521,3.398 -3.4,3.398 -1.877,0 -3.4,-1.519 -3.4,-3.398 0,-1.877 1.523,-3.398 3.4,-3.398 1.879,0 3.4,1.522 3.4,3.398 z"
             inkscape:connector-curvature="0"
             style="fill:#55d400" /><circle
             id="circle10"
             r="3.4000001"
             cy="49.408001"
             cx="28.707001"
             style="fill:#ffffff" /><path
             id="path12"
             d="m 62.854,27.541 -22.813,0 c -1.693,0 -3.069,-1.374 -3.069,-3.072 0,-1.694 1.376,-3.068 3.069,-3.068 l 22.813,0 c 1.696,0 3.069,1.374 3.069,3.068 0.001,1.698 -1.372,3.072 -3.069,3.072 z"
             inkscape:connector-curvature="0"
             style="fill:#ffffff" /><path
             id="path14-2"
             d="m 62.854,40.011 -22.813,0 c -1.693,0 -3.069,-1.376 -3.069,-3.072 0,-1.696 1.376,-3.072 3.069,-3.072 l 22.813,0 c 1.696,0 3.069,1.376 3.069,3.072 0,1.696 -1.372,3.072 -3.069,3.072 z"
             inkscape:connector-curvature="0"
             style="fill:#55d400" /><path
             id="path16"
             d="m 62.854,52.479 -22.813,0 c -1.693,0 -3.069,-1.376 -3.069,-3.07 0,-1.699 1.376,-3.072 3.069,-3.072 l 22.813,0 c 1.696,0 3.069,1.373 3.069,3.072 0.001,1.694 -1.372,3.07 -3.069,3.07 z"
             inkscape:connector-curvature="0"
             style="fill:#ffffff" /><circle
             id="circle18"
             r="3.4000001"
             cy="61.102001"
             cx="28.707001"
             style="fill:#ffffff" /><path
             id="path20"
             d="m 62.854,64.174 -22.813,0 c -1.693,0 -3.069,-1.375 -3.069,-3.072 0,-1.696 1.376,-3.069 3.069,-3.069 l 22.813,0 c 1.696,0 3.069,1.373 3.069,3.069 0.001,1.697 -1.372,3.072 -3.069,3.072 z"
             inkscape:connector-curvature="0"
             style="fill:#ffffff" /><path
             id="path22"
             d="M 95,22.852 C 95,11.76 90.904,7.664 85.848,7.664 l -62.246,0 c -5.199,0 -9.432,4.229 -9.432,9.433 l 0,59.298 -0.018,0 -9.152,0 c 0,13.849 5.111,15.943 11.422,15.943 l 7.18,0 40.125,0 7.297,0 c 5.203,0 9.434,-4.229 9.434,-9.433 l 0,-60.053 14.542,0 z M 76.683,82.904 c 0,3.12 -2.538,5.659 -5.659,5.659 -5.052,0 -7.638,-1.078 -7.638,-12.17 l -13.179,0 -32.262,0 0,-59.297 c 0,-3.12 2.534,-5.659 5.656,-5.659 l 55.572,0 c -1.496,2.371 -2.428,5.96 -2.469,11.082 -0.012,0.115 -0.022,0.23 -0.022,0.333 l 0,60.052 z"
             inkscape:connector-curvature="0"
             style="fill:#ffffff" /></g></g></g></g><g
     id="g7185"
     transform="matrix(1.3074098,0,0,1.3074098,506.4082,-82.675635)"
     style="fill:#ff9955" /></svg>