<?xml version="1.0" encoding="UTF-8" standalone="no"?>
<svg
   xmlns:dc="http://purl.org/dc/elements/1.1/"
   xmlns:cc="http://creativecommons.org/ns#"
   xmlns:rdf="http://www.w3.org/1999/02/22-rdf-syntax-ns#"
   xmlns:svg="http://www.w3.org/2000/svg"
   xmlns="http://www.w3.org/2000/svg"
   xmlns:sodipodi="http://sodipodi.sourceforge.net/DTD/sodipodi-0.dtd"
   xmlns:inkscape="http://www.inkscape.org/namespaces/inkscape"
   version="1.1"
   x="0px"
   y="0px"
   viewBox="0 0 100 125"
   enable-background="new 0 0 100 100"
   xml:space="preserve"
   id="svg2"
   inkscape:version="0.91 r13725"
   sodipodi:docname="recette.svg"
   inkscape:export-filename="F:\CODE\Site internet\WEB\komi\images\logo\recette.png"
   inkscape:export-xdpi="90"
   inkscape:export-ydpi="90"><metadata
     id="metadata32"><rdf:RDF><cc:Work
         rdf:about=""><dc:format>image/svg+xml</dc:format><dc:type
           rdf:resource="http://purl.org/dc/dcmitype/StillImage" /><dc:title></dc:title></cc:Work></rdf:RDF></metadata><defs
     id="defs30" /><sodipodi:namedview
     pagecolor="#f8ca83"
     bordercolor="#666666"
     borderopacity="1"
     objecttolerance="10"
     gridtolerance="10"
     guidetolerance="10"
     inkscape:pageopacity="0"
     inkscape:pageshadow="2"
     inkscape:window-width="1277"
     inkscape:window-height="746"
     id="namedview28"
     showgrid="false"
     inkscape:zoom="2.6700352"
     inkscape:cx="70.156929"
     inkscape:cy="43.87821"
     inkscape:window-x="2362"
     inkscape:window-y="178"
     inkscape:window-maximized="0"
     inkscape:current-layer="g3469"
     showborder="false" /><g
     id="g3469"
     transform="translate(38.950797,-4.4943227)"
     inkscape:export-xdpi="90"
     inkscape:export-ydpi="90"><g
       id="g3473"
       style="fill:#55d400"><rect
         style="fill:#55d400;fill-opacity:1;stroke:none;stroke-opacity:1"
         id="rect4400"
         width="32.971397"
         height="65.545547"
         x="21.664436"
         y="31.948494" /></g><path
       inkscape:connector-curvature="0"
       d="m 94.427774,26.951635 c 0,-0.207473 -0.20747,-0.414945 -0.41494,-0.622418 -6.43166,-7.261553 -1.24484,-13.070796 -1.03737,-13.278269 0.82989,-0.829891 0.62242,-2.074729 -0.41494,-2.904621 -0.41495,-0.2074727 -0.82989,-0.4149457 -1.24484,-0.4149457 l 0,0 0,0 -0.62242,0 -66.80629,-0.662076 c -6.43134,-0.06374 -11.82595,5.0190077 -12.44837,10.4133047 l 0,0 0,74.275308 c 0,6.224191 5.80924,11.411012 13.27827,11.411012 l 69.7109,0 0,-71.163215 0,-7.05408 0,0 z m -55.1878,31.535886 1.86726,33.610607 c 0.20747,1.45231 -1.24484,2.69715 -2.90462,2.69715 -1.65979,0 -3.1121,-1.24484 -2.90462,-2.69715 l 1.86725,-33.610607 c -4.5644,-0.62242 -7.88397,-5.394296 -7.88397,-11.203536 0,-6.22419 4.14946,-11.411013 9.12881,-11.411013 4.97935,0 9.12881,5.186823 9.12881,11.411013 -0.20747,5.80924 -3.73451,10.581116 -8.29892,11.203536 z m 30.08358,37.137647 c -2.2822,0 -4.14946,-1.24483 -3.94199,-2.69714 l 1.65979,-24.27434 c -3.73452,-10.166167 -7.46903,-25.726636 1.65978,-33.195662 1.03736,-0.829892 2.48967,-0.207473 2.48967,0.829892 l 0,30.70599 2.07473,25.72664 c 0,1.65979 -1.65978,2.90462 -3.94198,2.90462 z m 13.90068,-68.673533 0,0 -58.92231,0 c -3.73451,0 -7.05408,-2.074729 -7.88397,-5.186823 -1.03737,-4.149459 2.69715,-7.883972 7.46902,-7.883972 l 63.07178,0 c -1.45231,3.319567 -1.86726,8.091445 1.86725,13.070795 z"
       id="path4398"
       sodipodi:nodetypes="scscccccsccssccccsccsccssccscccsccsccscsccc"
       style="fill:#ffffff" /></g></svg>