<?xml version="1.0" encoding="UTF-8" standalone="no"?>
<svg
   xmlns:dc="http://purl.org/dc/elements/1.1/"
   xmlns:cc="http://creativecommons.org/ns#"
   xmlns:rdf="http://www.w3.org/1999/02/22-rdf-syntax-ns#"
   xmlns:svg="http://www.w3.org/2000/svg"
   xmlns="http://www.w3.org/2000/svg"
   xmlns:sodipodi="http://sodipodi.sourceforge.net/DTD/sodipodi-0.dtd"
   xmlns:inkscape="http://www.inkscape.org/namespaces/inkscape"
   version="1.1"
   x="0px"
   y="0px"
   viewBox="0 0 100 125"
   enable-background="new 0 0 100 100"
   xml:space="preserve"
   id="svg2"
   inkscape:version="0.91 r13725"
   sodipodi:docname="edit.svg"
   inkscape:export-filename="F:\CODE\Site internet\WEB\komi\images\logo\edit.png"
   inkscape:export-xdpi="90"
   inkscape:export-ydpi="90"><metadata
     id="metadata32"><rdf:RDF><cc:Work
         rdf:about=""><dc:format>image/svg+xml</dc:format><dc:type
           rdf:resource="http://purl.org/dc/dcmitype/StillImage" /><dc:title></dc:title></cc:Work></rdf:RDF></metadata><defs
     id="defs30" /><sodipodi:namedview
     pagecolor="#f4d3a3"
     bordercolor="#666666"
     borderopacity="1"
     objecttolerance="10"
     gridtolerance="10"
     guidetolerance="10"
     inkscape:pageopacity="0"
     inkscape:pageshadow="2"
     inkscape:window-width="1673"
     inkscape:window-height="892"
     id="namedview28"
     showgrid="false"
     inkscape:zoom="3.776"
     inkscape:cx="303.8242"
     inkscape:cy="51.894054"
     inkscape:window-x="2067"
     inkscape:window-y="60"
     inkscape:window-maximized="0"
     inkscape:current-layer="g4288"
     showborder="false" /><g
     id="g3399"><g
       id="g3404"
       transform="translate(2.9962151,-3.745269)"><g
         id="g4288"><g
           id="g3489"><path
             style="clip-rule:evenodd;fill:#55d400;fill-opacity:1;fill-rule:evenodd"
             d="m 324.2158,76.55764 c -0.35006,0 -0.6996,0.13124 -0.96485,0.39649 -0.12047,0.11624 -0.20418,0.25292 -0.26758,0.39453 l -0.084,0.26758 -4.95898,14.48242 -0.084,0.26562 c -0.10779,0.44384 0.0129,0.92682 0.35742,1.27344 0.34662,0.3445 0.82976,0.46668 1.27149,0.36523 l 0.26758,-0.0937 14.4746,-4.96093 -0.0117,0 0.27148,-0.0937 c 0.14372,-0.0613 0.26382,-0.15086 0.39063,-0.27344 0.52837,-0.53261 0.52838,-1.3909 0,-1.92774 l -9.69532,-9.69921 c -0.2663,-0.26525 -0.61674,-0.39649 -0.96679,-0.39649 z"
             id="path6550"
             inkscape:connector-curvature="0"
             inkscape:export-xdpi="90"
             inkscape:export-ydpi="90" /><path
             style="clip-rule:evenodd;fill:#55d400;fill-opacity:1;fill-rule:evenodd"
             d="m 373.93478,26.716803 c -1.04593,0 -2.09171,0.400305 -2.89062,1.199219 l -6.02539,6.029297 c -0.71648,0.71226 -0.71648,1.863912 0,2.576172 l 10.19922,10.199219 c 0.71226,0.71226 1.86471,0.71226 2.5664,0 l 6.0293,-6.025391 c 1.59149,-1.602056 1.59149,-4.187166 0,-5.787109 l -6.98633,-6.992188 c -0.79997,-0.798914 -1.84664,-1.199219 -2.89258,-1.199219 z"
             id="path6555"
             inkscape:connector-curvature="0" /><path
             inkscape:connector-curvature="0"
             style="clip-rule:evenodd;fill:#ffffff;fill-rule:evenodd"
             d="m 301.35156,32.865234 c -2.52567,0 -4.57422,2.048549 -4.57422,4.574219 l 0,73.171877 c 0,2.52356 2.04855,4.57422 4.57422,4.57422 l 73.17188,0 c 1.89161,0 3.51965,-1.15498 4.21289,-2.79297 0.2346,-0.54952 0.36133,-1.1493 0.36133,-1.78125 l 0,-42.685549 c 0,-2.527783 -2.05067,-4.572265 -4.57422,-4.572265 -2.52356,0 -4.57227,2.044482 -4.57227,4.572265 l 0,38.109379 -64.02539,0 0,-64.025394 38.10938,0 c 2.52566,0 4.57226,-2.046758 4.57226,-4.570313 0,-2.52567 -2.04871,-4.574219 -4.57226,-4.574219 l -42.6836,0 z m 60.38477,5.306641 c -0.46392,0 -0.92706,0.176337 -1.28321,0.529297 L 327.0918,72.080078 c -0.71014,0.71226 -0.71014,1.859685 0,2.576172 l 10.20312,10.201172 c 0.71226,0.70592 1.86064,0.707657 2.56446,-0.484375 L 373.2207,50.988281 c 0.71437,-0.217694 0.71437,-1.371884 0,-2.082031 L 363.01953,38.701172 c -0.35613,-0.35296 -0.81928,-0.529297 -1.2832,-0.529297 z"
             id="path6" /></g></g></g></g></svg>