<?xml version="1.0" encoding="UTF-8" standalone="no"?>
<svg
   xmlns:dc="http://purl.org/dc/elements/1.1/"
   xmlns:cc="http://creativecommons.org/ns#"
   xmlns:rdf="http://www.w3.org/1999/02/22-rdf-syntax-ns#"
   xmlns:svg="http://www.w3.org/2000/svg"
   xmlns="http://www.w3.org/2000/svg"
   xmlns:sodipodi="http://sodipodi.sourceforge.net/DTD/sodipodi-0.dtd"
   xmlns:inkscape="http://www.inkscape.org/namespaces/inkscape"
   version="1.1"
   x="0px"
   y="0px"
   viewBox="0 0 100 125"
   enable-background="new 0 0 100 100"
   xml:space="preserve"
   id="svg2"
   inkscape:version="0.91 r13725"
   sodipodi:docname="share.svg"
   inkscape:export-filename="F:\CODE\Site internet\WEB\komi\images\logo\share.png"
   inkscape:export-xdpi="90"
   inkscape:export-ydpi="90"><metadata
     id="metadata32"><rdf:RDF><cc:Work
         rdf:about=""><dc:format>image/svg+xml</dc:format><dc:type
           rdf:resource="http://purl.org/dc/dcmitype/StillImage" /><dc:title></dc:title></cc:Work></rdf:RDF></metadata><defs
     id="defs30" /><sodipodi:namedview
     pagecolor="#ffd7a3"
     bordercolor="#666666"
     borderopacity="1"
     objecttolerance="10"
     gridtolerance="10"
     guidetolerance="10"
     inkscape:pageopacity="0"
     inkscape:pageshadow="2"
     inkscape:window-width="1684"
     inkscape:window-height="879"
     id="namedview28"
     showgrid="false"
     inkscape:zoom="2.6700352"
     inkscape:cx="101.97135"
     inkscape:cy="34.894057"
     inkscape:window-x="1967"
     inkscape:window-y="80"
     inkscape:window-maximized="0"
     inkscape:current-layer="g5438"
     showborder="false" /><g
     id="g5438"><g
       id="g3501"><path
         style="fill:#55d400"
         d="m 255.40023,44.140679 c -0.89375,0 -1.78832,0.34025 -2.47071,1.02148 -1.36479,1.36245 -1.36479,3.57663 0,4.94141 6.598,6.59568 10.23243,15.36188 10.23243,24.68945 0,1.12257 -0.0617,2.23868 -0.17579,3.34961 -0.52868,-0.0536 -1.06124,-0.08203 -1.60156,-0.08203 -8.66847,0 -15.7207,7.0499 -15.7207,15.7207 0,8.666131 7.05223,15.720711 15.7207,15.720711 8.66846,0 15.7207,-7.05458 15.7207,-15.720711 -0.002,-5.60586 -2.96008,-10.51727 -7.38281,-13.30273 0.27249,-1.87483 0.42383,-3.77112 0.42383,-5.68555 0,-11.19541 -4.35918,-21.71699 -12.27539,-29.63086 -0.68239,-0.68123 -1.57696,-1.02148 -2.4707,-1.02148 z m 5.98242,40.9043 c 4.814,0 8.73242,3.91804 8.73242,8.73437 0,4.814 -3.91842,8.734381 -8.73242,8.734371 -4.81401,0 -8.73438,-3.922701 -8.73438,-8.734371 0,-4.81633 3.92037,-8.73438 8.73438,-8.73437 z"
         id="path5412"
         inkscape:connector-curvature="0" /><path
         style="fill:#ffffff"
         d="M 228.24609 20.761719 C 219.76627 20.761719 212.85317 27.512676 212.55273 35.917969 C 210.79435 36.621321 209.07387 37.429508 207.41797 38.386719 C 197.72242 43.98326 190.7914 53.022478 187.89648 63.835938 C 187.39808 65.699123 188.504 67.615255 190.36719 68.111328 C 190.66995 68.192838 190.973 68.232422 191.27344 68.232422 C 192.81523 68.232422 194.22765 67.203371 194.64453 65.640625 C 197.05736 56.629797 202.83715 49.10012 210.91406 44.4375 C 211.8899 43.873886 212.88968 43.367012 213.91211 42.908203 C 216.37384 48.37898 221.86934 52.203125 228.24609 52.203125 C 236.91456 52.203125 243.9668 45.15089 243.9668 36.482422 C 243.9668 27.813955 236.91456 20.761719 228.24609 20.761719 z M 228.24609 27.748047 C 233.0601 27.748047 236.97852 31.666089 236.97852 36.482422 C 236.97852 41.298755 233.0601 45.216797 228.24609 45.216797 C 223.42976 45.216797 219.51172 41.298755 219.51172 36.482422 C 219.51172 31.666089 223.42976 27.748047 228.24609 27.748047 z M 195.11133 78.154297 C 186.44286 78.154297 179.39063 85.204204 179.39062 93.875 C 179.39062 102.54114 186.44286 109.5957 195.11133 109.5957 C 197.78267 109.5957 200.29836 108.92335 202.50391 107.74023 C 203.98747 108.90472 205.52686 110.00681 207.17578 110.95703 C 213.62939 114.6834 220.79293 116.58789 228.05469 116.58789 C 231.69489 116.58789 235.36469 116.10948 238.97461 115.14062 C 240.8378 114.63989 241.94138 112.72218 241.44531 110.86133 C 240.94225 108.99581 239.02064 107.90191 237.16211 108.38867 C 228.15827 110.80382 218.74292 109.56887 210.66602 104.90625 C 209.68784 104.34264 208.74387 103.7216 207.83789 103.0625 C 209.71272 100.475 210.83203 97.303261 210.83203 93.875 C 210.83203 85.204204 203.7798 78.154297 195.11133 78.154297 z M 195.10938 85.138672 C 199.9257 85.138672 203.8418 89.056714 203.8418 93.873047 C 203.8418 98.68705 199.92571 102.60742 195.10938 102.60742 C 190.29305 102.60742 186.375 98.684721 186.375 93.873047 C 186.375 89.056714 190.29304 85.138672 195.10938 85.138672 z "
         id="path4" /></g></g></svg>